<svg width="154" height="27" viewBox="0 0 154 27" fill="none" xmlns="http://www.w3.org/2000/svg">
<path d="M0.828125 25.8076L5.34028 14.8052H8.16863L12.6733 25.8076H9.52723L8.75166 23.8572H4.668L3.91474 25.8076H0.828125ZM5.53241 21.5026H7.91039L6.72863 18.3939L5.53241 21.5026Z" fill="white"/>
<path d="M16.7227 25.8075V14.8813H21.7178C23.255 14.8813 24.4016 15.2749 25.1586 16.061C25.7821 16.7098 26.094 17.5787 26.094 18.6666C26.094 19.466 25.9031 20.1447 25.5222 20.7036C25.1412 21.2616 24.6107 21.6888 23.9318 21.9851L26.4572 25.8075H23.0731L20.939 22.4856H19.6539V25.8075H16.7227ZM19.6543 20.131H21.5893C22.0864 20.131 22.4732 20.0146 22.7488 19.7819C23.0244 19.5495 23.1624 19.2277 23.1624 18.8167C23.1624 18.4015 23.0231 18.0847 22.7451 17.8669C22.467 17.6499 22.0769 17.5403 21.5745 17.5403H19.6543V20.1311L19.6543 20.131Z" fill="white"/>
<path d="M30.0273 17.5408V14.8818H39.3169V17.5408H36.134V25.8079H33.2028V17.5408H30.0273Z" fill="white"/>
<path d="M43.6211 25.8075V14.8813H48.6159C50.153 14.8813 51.3005 15.2749 52.0574 16.061C52.6814 16.7098 52.9929 17.5787 52.9929 18.6666C52.9929 19.466 52.802 20.1447 52.4206 20.7036C52.0405 21.2616 51.51 21.6888 50.8302 21.9851L53.3557 25.8075H49.972L47.8378 22.4856H46.5528V25.8075H43.6211H43.6211ZM46.5528 20.131H48.4878C48.9849 20.131 49.3716 20.0146 49.6472 19.7819C49.9228 19.5495 50.0609 19.2277 50.0609 18.8167C50.0609 18.4015 49.9216 18.0847 49.6435 17.8669C49.3654 17.6499 48.9754 17.5403 48.4729 17.5403H46.5528V20.1311L46.5528 20.131Z" fill="white"/>
<path d="M57.1524 20.3487C57.1524 19.5758 57.2987 18.84 57.5916 18.1417C57.8845 17.4425 58.2821 16.8388 58.7841 16.3307C59.2861 15.8221 59.8919 15.4183 60.6009 15.1186C61.31 14.8185 62.0657 14.6685 62.8682 14.6685C63.6706 14.6685 64.4239 14.8172 65.128 15.1148C65.8321 15.4119 66.4337 15.8131 66.9312 16.3191C67.4295 16.8248 67.8224 17.4272 68.1092 18.1263C68.396 18.8246 68.5402 19.5656 68.5402 20.3487C68.5402 21.1203 68.3939 21.8562 68.1022 22.557C67.8105 23.2579 67.413 23.8611 66.9122 24.3693C66.4114 24.877 65.8081 25.2799 65.1003 25.5796C64.3937 25.8793 63.6392 26.0289 62.8393 26.0289C61.7707 26.0289 60.8009 25.7761 59.9295 25.2709C59.058 24.7666 58.3775 24.0811 57.8874 23.2148C57.3974 22.3498 57.1523 21.3944 57.1523 20.3487L57.1524 20.3487ZM60.158 20.3487C60.158 21.1574 60.4141 21.8515 60.9261 22.4313C61.4381 23.0115 62.0856 23.301 62.8682 23.301C63.6607 23.301 64.3082 23.0141 64.8102 22.4424C65.3122 21.8703 65.5635 21.1724 65.5635 20.3483C65.5635 19.5396 65.3073 18.8455 64.7953 18.2657C64.2834 17.6859 63.6309 17.396 62.8384 17.396C62.0558 17.396 61.4133 17.6825 60.9108 18.2546C60.4092 18.8267 60.158 19.5246 60.158 20.3487Z" fill="white"/>
<path d="M72.7422 20.3487C72.7422 19.5609 72.8827 18.8174 73.1645 18.1187C73.4463 17.4195 73.8314 16.8171 74.319 16.3115C74.8065 15.8055 75.3958 15.4056 76.0887 15.111C76.7817 14.8155 77.5225 14.6685 78.3105 14.6685C80.1959 14.6685 81.6781 15.4299 82.7561 16.9518L80.6071 18.6759C79.9522 17.8232 79.1745 17.3965 78.2733 17.3965C77.5399 17.3965 76.9354 17.6804 76.4602 18.2487C75.985 18.8161 75.7474 19.5165 75.7474 20.3491C75.7474 21.1864 75.985 21.8881 76.4602 22.4535C76.9354 23.02 77.5395 23.3018 78.2733 23.3018C78.7902 23.3018 79.2295 23.1901 79.5914 22.9668C79.9534 22.7434 80.3117 22.4078 80.6658 21.9611L82.8739 23.5956C82.5144 24.0961 82.1343 24.5177 81.7331 24.8579C81.3319 25.1981 80.8273 25.479 80.2191 25.6999C79.6113 25.9194 78.9328 26.0298 78.1845 26.0298C77.1849 26.0298 76.2705 25.7873 75.4408 25.3021C74.6111 24.8182 73.9541 24.14 73.469 23.269C72.9848 22.398 72.7422 21.4247 72.7422 20.3487L72.7422 20.3487Z" fill="white"/>
<path d="M87.168 25.8075V14.8813H90.0997V19.3159L93.7478 14.8813H97.2261L93.216 19.5824L97.3588 25.8075H93.8362L91.1777 21.754L90.0996 22.9806V25.8075H87.168H87.168Z" fill="white"/>
<path d="M101.234 25.8075V14.8813H109.749V17.4567H104.137V19.11H109.217V21.5025H104.137V23.2321H109.823V25.8075H101.234H101.234Z" fill="white"/>
<path d="M113.754 17.5408V14.8818H123.044V17.5408H119.861V25.8079H116.929V17.5408H113.754Z" fill="white"/>
<path d="M126.547 24.1843L128.186 22.1729C129.246 23.0464 130.392 23.4834 131.625 23.4834C132.013 23.4834 132.31 23.416 132.517 23.2813C132.722 23.1466 132.826 22.9526 132.826 22.6986C132.826 22.465 132.704 22.2744 132.461 22.1273C132.218 21.9798 131.747 21.8225 131.051 21.6549C130.692 21.5684 130.381 21.4887 130.116 21.4149C129.852 21.3412 129.571 21.2486 129.275 21.1369C128.978 21.0253 128.726 20.9084 128.519 20.7865C128.311 20.6646 128.108 20.5175 127.911 20.3444C127.713 20.1718 127.556 19.985 127.436 19.7842C127.318 19.5834 127.223 19.3485 127.151 19.0795C127.079 18.8105 127.044 18.5155 127.044 18.1958C127.044 17.1645 127.415 16.3238 128.159 15.6737C128.901 15.0235 129.9 14.6982 131.154 14.6982C132.892 14.6982 134.346 15.1808 135.513 16.146L134.039 18.287C133.051 17.5708 132.064 17.2126 131.08 17.2126C130.736 17.2126 130.473 17.28 130.292 17.4147C130.111 17.5494 130.02 17.7259 130.02 17.9442C130.02 18.1983 130.142 18.3948 130.384 18.5346C130.628 18.6745 131.115 18.8305 131.847 19.0032C132.495 19.1507 133.045 19.3118 133.499 19.487C133.953 19.6622 134.362 19.8818 134.725 20.1461C135.088 20.4105 135.358 20.7314 135.535 21.11C135.714 21.4886 135.802 21.9315 135.802 22.4397C135.802 23.5422 135.413 24.4106 134.634 25.0454C133.855 25.6802 132.816 25.9978 131.515 25.9978C130.559 25.9978 129.652 25.8443 128.794 25.5369C127.935 25.2296 127.187 24.7789 126.547 24.1842L126.547 24.1843Z" fill="white"/>
<path d="M150.743 3.29956L138.152 6.14139L147.989 16.2899L150.743 3.29956Z" fill="#FF0000"/>
<path d="M153.17 0.794434L138.84 4.0289L150.036 15.58L153.17 0.794434Z" fill="white"/>
</svg>
