<svg width="18" height="16" viewBox="0 0 18 16" fill="none" xmlns="http://www.w3.org/2000/svg">
<path d="M5.79941 10.6369L5.80229 10.6367H15.3633C15.5987 10.6367 15.8056 10.4806 15.8703 10.2543L17.9797 2.87144C18.0251 2.71228 17.9933 2.54117 17.8937 2.40906C17.794 2.27695 17.6381 2.19922 17.4727 2.19922H4.58322L4.20625 0.502792C4.15256 0.261505 3.9386 0.0898438 3.69141 0.0898438H0.527344C0.236069 0.0898438 0 0.325912 0 0.617188C0 0.908463 0.236069 1.14453 0.527344 1.14453H3.26843C3.33517 1.44514 5.07239 9.26274 5.17236 9.71249C4.61192 9.95612 4.21875 10.5149 4.21875 11.1641C4.21875 12.0364 4.92847 12.7461 5.80078 12.7461H15.3633C15.6546 12.7461 15.8906 12.51 15.8906 12.2188C15.8906 11.9275 15.6546 11.6914 15.3633 11.6914H5.80078C5.51006 11.6914 5.27344 11.4548 5.27344 11.1641C5.27344 10.8737 5.50923 10.6375 5.79941 10.6369ZM16.7735 3.25391L14.9654 9.58203H6.22375L4.8175 3.25391H16.7735Z" fill="#EBEBEB"/>
<path d="M5.27344 14.3281C5.27344 15.2004 5.98315 15.9102 6.85547 15.9102C7.72778 15.9102 8.4375 15.2004 8.4375 14.3281C8.4375 13.4558 7.72778 12.7461 6.85547 12.7461C5.98315 12.7461 5.27344 13.4558 5.27344 14.3281ZM6.85547 13.8008C7.14619 13.8008 7.38281 14.0374 7.38281 14.3281C7.38281 14.6189 7.14619 14.8555 6.85547 14.8555C6.56474 14.8555 6.32812 14.6189 6.32812 14.3281C6.32812 14.0374 6.56474 13.8008 6.85547 13.8008Z" fill="#EBEBEB"/>
<path d="M12.7266 14.3281C12.7266 15.2004 13.4363 15.9102 14.3086 15.9102C15.1809 15.9102 15.8906 15.2004 15.8906 14.3281C15.8906 13.4558 15.1809 12.7461 14.3086 12.7461C13.4363 12.7461 12.7266 13.4558 12.7266 14.3281ZM14.3086 13.8008C14.5993 13.8008 14.8359 14.0374 14.8359 14.3281C14.8359 14.6189 14.5993 14.8555 14.3086 14.8555C14.0179 14.8555 13.7812 14.6189 13.7812 14.3281C13.7812 14.0374 14.0179 13.8008 14.3086 13.8008Z" fill="#EBEBEB"/>
</svg>
