<svg width="10" height="16" viewBox="0 0 10 16" fill="none" xmlns="http://www.w3.org/2000/svg">
<path d="M9.00036 0.00332907L6.92554 0C4.59455 0 3.08817 1.54552 3.08817 3.93762V5.75313H1.00203C0.82176 5.75313 0.675781 5.89927 0.675781 6.07954V8.71001C0.675781 8.89028 0.821926 9.03625 1.00203 9.03625H3.08817V15.6738C3.08817 15.854 3.23414 16 3.41441 16H6.13623C6.3165 16 6.46247 15.8539 6.46247 15.6738V9.03625H8.90166C9.08193 9.03625 9.2279 8.89028 9.2279 8.71001L9.2289 6.07954C9.2289 5.99299 9.19445 5.91009 9.13336 5.84884C9.07227 5.78758 8.98904 5.75313 8.90249 5.75313H6.46247V4.2141C6.46247 3.47438 6.63875 3.09886 7.60234 3.09886L9.00003 3.09836C9.18013 3.09836 9.32611 2.95222 9.32611 2.77211V0.329578C9.32611 0.149642 9.1803 0.00366197 9.00036 0.00332907Z" fill="white"/>
</svg>
