<svg width="63" height="63" viewBox="0 0 63 63" fill="none" xmlns="http://www.w3.org/2000/svg">
<circle cx="31.5" cy="31.5" r="30.5" stroke="#333333" stroke-width="2"/>
<g clip-path="url(#clip0)">
<path d="M42.9143 42.4571L35.7245 24.9324C35.3258 23.9601 35.1235 22.9345 35.1235 21.8837V17.2513C35.1235 16.7525 35.3178 16.2835 35.6706 15.9307C36.1007 15.5006 36.3377 14.9286 36.3377 14.3203V13.6641C36.3377 13.2973 36.0402 13 35.6737 13H26.402C26.0352 13 25.7379 13.2973 25.7379 13.6641V14.3203C25.7379 14.9286 25.9747 15.5006 26.4048 15.9307C26.7576 16.2835 26.9519 16.7525 26.9519 17.2516V21.8837C26.9519 22.9345 26.7498 23.9601 26.3509 24.9324L24.3753 29.7479C24.3745 29.7497 24.3737 29.7515 24.3729 29.7533L19.1611 42.4571C18.7437 43.4748 18.8602 44.6278 19.4729 45.5411C20.0856 46.4547 21.1079 47 22.2077 47H39.8676C40.9675 47 41.9901 46.4547 42.6028 45.5411C43.2152 44.6275 43.3317 43.4748 42.9143 42.4571ZM27.5796 25.4364C28.0445 24.3036 28.28 23.1083 28.28 21.8837V17.2513C28.28 16.3979 27.9477 15.5953 27.3441 14.9917C27.1667 14.8142 27.0681 14.5787 27.066 14.3281H35.0096C35.0075 14.5787 34.909 14.814 34.7313 14.9917C34.1279 15.5953 33.7954 16.3976 33.7954 17.2513V21.8834C33.7954 23.108 34.0312 24.3033 34.4957 25.4361L36.0991 29.3442H25.9763L27.5796 25.4364ZM41.4995 44.8013C41.1286 45.3546 40.5338 45.6719 39.8676 45.6719H22.2077C21.5419 45.6719 20.9471 45.3546 20.5759 44.8013C20.296 44.384 20.1891 43.8999 20.2617 43.4226H21.3559C21.7224 43.4226 22.0199 43.1251 22.0199 42.7586C22.0199 42.3918 21.7224 42.0945 21.3559 42.0945H20.7458L21.5084 40.2351H22.6285C22.9953 40.2351 23.2925 39.9376 23.2925 39.5711C23.2925 39.2043 22.9953 38.907 22.6285 38.907H22.0534L22.816 37.0476H23.9678C24.3346 37.0476 24.6318 36.7501 24.6318 36.3836C24.6318 36.0168 24.3346 35.7195 23.9678 35.7195H23.361L24.1239 33.8601H25.3068C25.6736 33.8601 25.9708 33.5626 25.9708 33.1961C25.9708 32.8293 25.6736 32.532 25.3068 32.532H24.6687L25.4316 30.6726H36.6438L41.6855 42.9614C41.9382 43.5775 41.8705 44.2483 41.4995 44.8013Z" fill="#54C5B0" stroke="#54C5B0"/>
</g>
<line x1="8.70711" y1="10.2929" x2="51.7071" y2="53.2929" stroke="#333333" stroke-width="2"/>
<defs>
<clipPath id="clip0">
<rect width="34" height="34" fill="white" transform="translate(14 13)"/>
</clipPath>
</defs>
</svg>
