<svg width="63" height="63" viewBox="0 0 63 63" fill="none" xmlns="http://www.w3.org/2000/svg">
<g clip-path="url(#clip0)">
<path d="M24.1506 26.251H17.8508C17.2709 26.251 16.8008 26.7211 16.8008 27.301C16.8008 27.8808 17.2709 28.3509 17.8508 28.3509H24.1506C24.7305 28.3509 25.2006 27.8808 25.2006 27.301C25.2006 26.7211 24.7305 26.251 24.1506 26.251Z" fill="#54C5B0"/>
<path d="M24.1506 55.6503H17.8508C17.2709 55.6503 16.8008 56.1204 16.8008 56.7002C16.8008 57.2801 17.2709 57.7502 17.8508 57.7502H24.1506C24.7305 57.7502 25.2006 57.2801 25.2006 56.7002C25.2006 56.1204 24.7305 55.6503 24.1506 55.6503Z" fill="#54C5B0"/>
<path d="M57.5345 40.4261L42.1202 13.7301C43.0686 12.7893 43.9079 11.744 44.621 10.614C46.3713 7.77887 46.6841 5.08779 45.5008 3.03859C43.1461 -1.04083 35.7091 -1.00802 28.57 3.11293C27.622 3.66817 26.7104 4.28288 25.8404 4.95347L24.993 3.99167C23.9825 2.84736 22.5295 2.19113 21.0027 2.1901C19.4765 2.19113 18.0235 2.84736 17.013 3.99167L5.53456 16.999C4.67633 17.971 4.20261 19.2235 4.20313 20.5206V53.5508C4.20928 58.7673 8.43635 62.9949 13.6529 63.0006H28.3526C33.5691 62.9949 37.7967 58.7673 37.8024 53.5508V20.5206C37.8003 19.5091 37.5086 18.5191 36.9626 17.6675H36.9708C38.2263 16.9416 39.4178 16.1105 40.5324 15.1836L55.716 41.476C57.7473 44.9915 56.5435 49.4877 53.027 51.518L40.2971 58.8678C39.7372 59.1877 39.1369 59.4323 38.5124 59.5943C37.9521 59.7435 37.6183 60.3187 37.7675 60.8791C37.9162 61.4394 38.4914 61.7732 39.0523 61.624C39.8531 61.4133 40.6231 61.098 41.3419 60.6863L54.0719 53.3365C58.5942 50.7284 60.1451 44.9474 57.5345 40.4261ZM35.7024 53.5508C35.6978 57.6081 32.41 60.896 28.3526 60.9006H13.6529C9.59604 60.896 6.30769 57.6081 6.30308 53.5508V20.5206C6.30308 19.7352 6.58967 18.9769 7.10953 18.3878L18.588 5.38207C19.1991 4.68841 20.0784 4.29057 21.0027 4.29005C21.9271 4.29057 22.8069 4.68841 23.418 5.38207L33.6583 16.9872C31.3174 18.0915 28.7591 18.659 26.1711 18.6483C26.2188 18.3853 26.246 18.1187 26.2526 17.8516C26.2495 14.9534 23.9009 12.6053 21.0027 12.6017C20.8874 12.6053 20.7736 12.6283 20.6659 12.6699C20.1368 12.6048 19.6446 12.9513 19.5267 13.4712C19.153 14.9062 19.3365 16.4294 20.0399 17.7347C20.7377 18.8903 21.823 19.7603 23.1027 20.1889C22.1824 21.0287 20.852 21.2435 19.7139 20.7369C18.5752 20.2299 17.8451 19.0974 17.8528 17.8516C17.8528 17.2717 17.3827 16.8016 16.8028 16.8016C16.223 16.8016 15.7529 17.2717 15.7529 17.8516C15.7503 20.1792 17.2822 22.2299 19.5154 22.8871C21.7482 23.5444 24.147 22.6508 25.4057 20.6929C25.8189 20.7364 26.2342 20.7595 26.65 20.761C29.581 20.6724 32.4581 19.9479 35.0821 18.638C35.4825 19.1845 35.6993 19.8433 35.7024 20.5206V53.5508ZM24.1527 17.8516C24.1486 18.0054 24.1332 18.1587 24.1065 18.3104C23.1801 18.0695 22.3778 17.4896 21.8589 16.6847C21.5349 16.0936 21.396 15.4189 21.4595 14.7478C23.0017 14.9739 24.1465 16.293 24.1527 17.8516ZM35.9198 15.8398C35.8152 15.9008 35.7101 15.9531 35.605 16.0121L27.2365 6.52741C27.9983 5.94961 28.7945 5.41847 29.6199 4.93655C35.5348 1.52002 41.9751 1.13397 43.6813 4.09677C44.4616 5.44616 44.1601 7.37282 42.8338 9.51994C42.3094 10.3531 41.7049 11.1328 41.0282 11.8475L41.0174 11.8286C40.3699 10.7053 39.3332 9.85729 38.1038 9.44406L33.9921 8.05418C33.4486 7.88858 32.8719 8.18542 32.6909 8.72374C32.5094 9.26257 32.7899 9.84755 33.3236 10.0439L37.4353 11.4266C38.1792 11.6773 38.8062 12.1905 39.1989 12.8703L39.4665 13.3333C38.3648 14.2782 37.1774 15.1179 35.9198 15.8429V15.8398Z" fill="#333333"/>
<path d="M40.0394 42.323C40.3291 42.8249 40.9715 42.9972 41.4734 42.707L48.7479 38.5071C49.0755 38.321 49.278 37.9734 49.279 37.5966C49.2795 37.2198 49.0785 36.8717 48.752 36.684C48.4249 36.4964 48.0229 36.4979 47.6979 36.6886L40.4234 40.8885C39.9215 41.1787 39.7492 41.8206 40.0394 42.323Z" fill="#54C5B0"/>
<path d="M41.3675 48.8255C41.6567 49.3279 42.2991 49.5007 42.8015 49.2105L51.8945 43.9606C52.3969 43.6709 52.5692 43.0285 52.279 42.5261C51.9893 42.0237 51.3469 41.8514 50.8445 42.1411L41.7515 47.391C41.2496 47.6811 41.0774 48.323 41.3675 48.8255Z" fill="#54C5B0"/>
<path d="M41.9641 36.2016C42.1481 36.2016 42.3291 36.1528 42.4891 36.0606L46.126 33.9606C46.4537 33.7745 46.6562 33.4269 46.6572 33.0501C46.6577 32.6738 46.4567 32.3252 46.1301 32.1375C45.8036 31.9499 45.4011 31.9514 45.0761 32.1421L41.4391 34.2421C41.0274 34.48 40.8269 34.9639 40.95 35.4233C41.073 35.8822 41.4888 36.2016 41.9641 36.2016Z" fill="#54C5B0"/>
<path d="M19 48.5C19 47.7 19 40.5 19 37H22.1721C23.0342 37 23.9127 37.2544 24.4205 37.9512C24.7308 38.3771 25 38.9151 25 39.5C25 40.0849 24.7308 40.6229 24.4205 41.0488C23.9127 41.7456 23.0342 42 22.1721 42H16.5" stroke="#54C5B0" stroke-width="2"/>
<path d="M16.5 45H22.5" stroke="#54C5B0" stroke-width="2"/>
</g>
<defs>
<clipPath id="clip0">
<rect width="63" height="63" fill="white"/>
</clipPath>
</defs>
</svg>
