<svg width="21" height="13" viewBox="0 0 21 13" fill="none" xmlns="http://www.w3.org/2000/svg">
<path fill-rule="evenodd" clip-rule="evenodd" d="M18.0735 8.11406C18.7701 8.79416 19.5053 9.43404 20.1301 10.1827C20.4061 10.5154 20.6674 10.8588 20.8673 11.2449C21.1505 11.7937 20.894 12.3978 20.4018 12.4305L17.3425 12.4291C16.5534 12.4946 15.924 12.177 15.3947 11.6375C14.9711 11.206 14.5789 10.7469 14.1716 10.3009C14.0046 10.1186 13.8298 9.94704 13.621 9.81146C13.2034 9.54037 12.8409 9.62337 12.6022 10.059C12.3591 10.502 12.304 10.9926 12.2801 11.4863C12.2474 12.2067 12.0296 12.3961 11.306 12.4291C9.75946 12.502 8.29175 12.268 6.9283 11.4879C5.72623 10.8001 4.79408 9.82919 3.98274 8.73C2.40304 6.58963 1.19332 4.23772 0.106057 1.81992C-0.138676 1.27519 0.0403027 0.982778 0.641338 0.972429C1.63938 0.95304 2.63729 0.954421 3.63651 0.971049C4.04214 0.976983 4.31068 1.20964 4.4673 1.59285C5.00728 2.92057 5.66799 4.18377 6.49734 5.35465C6.7182 5.66638 6.94341 5.97811 7.26411 6.19752C7.61889 6.44046 7.88902 6.35994 8.05592 5.96473C8.16183 5.71413 8.2082 5.44421 8.23207 5.17581C8.31114 4.25242 8.32156 3.33062 8.18288 2.41047C8.09773 1.83621 7.77427 1.46445 7.20125 1.35578C6.90884 1.30037 6.95238 1.19156 7.09396 1.02466C7.33987 0.736803 7.57115 0.557617 8.03219 0.557617H11.4897C12.034 0.665046 12.1549 0.909572 12.2294 1.45727L12.2324 5.29787C12.2265 5.50989 12.3383 6.13908 12.7202 6.27942C13.0259 6.37933 13.2273 6.1348 13.4107 5.94099C14.2386 5.06238 14.8294 4.02404 15.3572 2.94885C15.5915 2.47609 15.7929 1.9851 15.9881 1.49453C16.1327 1.1305 16.3596 0.951384 16.7697 0.959319L20.0973 0.962286C20.196 0.962286 20.2958 0.963735 20.3914 0.980087C20.9521 1.07565 21.1058 1.31686 20.9326 1.86443C20.6597 2.72351 20.1288 3.43943 19.6097 4.15865C19.0547 4.92652 18.4612 5.66811 17.9109 6.44053C17.4053 7.14589 17.4454 7.50143 18.0735 8.11406Z" fill="white"/>
</svg>
